<svg xmlns="http://www.w3.org/2000/svg" version="1.1" xmlns:xlink="http://www.w3.org/1999/xlink" xmlns:svgjs="http://svgjs.com/svgjs" width="1000" height="1000"><rect width="1000" height="1000" rx="300" ry="300" fill="#ffffff"></rect><g transform="matrix(4,0,0,4,-0.33217620849609375,-0.6647415161132812)"><svg xmlns="http://www.w3.org/2000/svg" version="1.1" xmlns:xlink="http://www.w3.org/1999/xlink" xmlns:svgjs="http://svgjs.com/svgjs" width="250" height="250"><svg width="250" height="250" version="1.1" viewBox="0 0 400 400" xmlns="http://www.w3.org/2000/svg">
<g xmlns="http://www.w3.org/2000/svg">
<path d="m183.81 55.7c-3.085 7.329-10.338 23.837-10.737 24.438-0.331 0.498-2.552 1.439-6.293 2.666-39.89 13.086-68.035 45.002-76.188 86.396-0.814 4.133-0.45 3.752-4.78 5.007-34.484 9.993-28.353 60.093 7.438 60.788 5.954 0.116 5.658-0.016 7.11 3.185 7.436 16.399 19.665 30.488 38.263 44.079 0.989 0.722 1.103 0.976 0.722 1.6-0.249 0.407-1.444 2.312-2.656 4.233-9.689 15.35-10.558 35.725-2.236 52.398 2.354 4.716 2.718 4.974 7.824 5.554 12.587 1.432 30.517-2.932 41.857-10.186 2.613-1.671 3.001-1.735 4.31-0.713 5.836 4.558 13.524 4.833 21.221 0.76l3.066-1.623 1.534 0.921c13.085 7.862 23.82 10.929 38.333 10.953 10.378 0.018 10.153 0.114 13.019-5.557 8.66-17.131 7.499-37.524-3.07-53.911-2.179-3.38-2.174-3.611 0.121-5.196 15.67-10.825 27.238-24.085 36.521-41.862l2.209-4.23 4.8-0.072c36.88-0.555 43.273-54.072 7.379-61.77-2.476-0.531-2.649-0.774-3.402-4.795-7.843-41.863-38.182-74.935-79.771-86.953-6.102-1.764-6.034-0.744-0.853-12.831 2.447-5.708 4.448-10.578 4.448-10.821-1e-3 -0.482-7.016-3.774-8.021-3.764-0.43 4e-3 -2.137 3.569-5.582 11.66-5.864 13.771-5.084 12.722-9.289 12.485-6.244-0.353-6.112 0.688-1.309-10.37 2.09-4.812 3.8-9.041 3.8-9.398 0-0.615-7.353-4.371-8.556-4.371-0.264 0-1.89 3.375-3.613 7.5-6.471 15.493-6.554 15.657-7.969 15.853-10.503 1.461-10.029 2.463-4.662-9.851 4.813-11.043 4.782-9.833 0.3-11.85-4.437-1.996-4.592-2.006-5.288-0.352m25.386 32.257c1.452 0.404 1.42 1.217-0.192 4.883-1.791 4.074-1.879 3.886 2.785 5.895 5.062 2.18 4.599 2.404 7.102-3.435 2.63-6.134 2.265-5.984 9.512-3.901 36.179 10.4 63.199 39.369 71.447 76.601 1.197 5.402 2.303 4.686-13.823 8.944-14.527 3.836-13.964 3.799-14.804 0.961-7.88-26.618-45.404-32.214-62.081-9.259l-2.437 3.354h-15.815l-0.703-1.1c-15.718-24.592-52.01-21.265-62.962 5.773-1.572 3.88-0.726 3.871-14.247 0.162-13.464-3.694-13.125-3.54-12.774-5.804 3.316-21.36 16.059-43.851 33.214-58.62 12.87-11.08 36.093-23.206 33.487-17.485-0.604 1.324-0.381 1.536 3.847 3.655 4.458 2.234 4.009 2.482 6.628-3.671 2.287-5.373 2.086-5.183 6.272-5.92 6.656-1.171 6.715-1.119 4.489 4.063-0.849 1.976-1.308 3.538-1.1 3.741 0.471 0.458 7.763 3.606 8.354 3.606 0.253 0 1.509-2.655 2.791-5.9s2.507-6.125 2.721-6.4c0.422-0.542 6.479-0.646 8.289-0.143m-42.998 76.714c15.536 3.87 23.434 21.579 16.132 36.169-8.59 17.162-33.117 18.727-43.712 2.79-13.074-19.667 4.631-44.675 27.58-38.959m77.354-0.057c19.26 4.54 25.849 29.298 11.473 43.11-15.766 15.149-42.538 3.93-42.773-17.924-0.18-16.725 15.085-29.008 31.3-25.186m-41.117 24.186c0.46 12.795 4.359 21.129 13.162 28.137 21.319 16.969 54 3.866 57.025-22.864 0.399-3.532-0.144-3.27 15.151-7.291l13.975-3.674 4.825 0.195c6.925 0.28 11.27 2.064 15.406 6.325 14.86 15.313 0.035 40.279-20.617 34.72-5.741-1.545-5.422-1.62-6.505 1.523-8.122 23.555-29.615 46.055-54.168 56.706-52.657 22.841-115.48-3.279-135.11-56.177-0.672-1.81-1.324-2.973-1.646-2.932-0.292 0.037-2.31 0.532-4.483 1.1-22.084 5.769-36.803-20.578-20.124-36.02 7.459-6.905 13.089-7.32 31.47-2.319 14.402 3.919 13.451 3.409 14.024 7.525 6.095 43.824 70.005 38.94 70.064-5.354 0.01-7.028-0.34-6.454 3.85-6.315l3.467 0.115 0.237 6.6m33.803 41.564c-2.574 0.31-3.262 1.267-4.205 5.849-7.257 35.241-57.086 35.125-65.057-0.15-1.173-5.193-1.32-5.33-5.533-5.178-4.652 0.169-5.051 0.791-4.079 6.346 8.392 47.945 76.278 46.661 84.444-1.596 0.855-5.052-0.075-5.932-5.57-5.271m-80.04 62.277c9.487 1.928 20.309 7.119 26.387 12.658l1.867 1.701-1.382 3c-2.224 4.828-2.756 8.641-1.791 12.823 0.599 2.594 0.219 2.967-6.281 6.158-8.053 3.955-17.736 6.219-26.591 6.219-5.472 0-5.084 0.258-6.747-4.475-4.057-11.542-3.252-23.13 2.409-34.656 2.589-5.272 2.783-5.327 12.129-3.428m100.69 3.759c6.016 12.088 6.554 26.279 1.394 36.8l-0.883 1.8-3 0.13c-9.247 0.401-21.414-2.523-30.891-7.423-4.63-2.395-4.878-2.688-4.306-5.107 0.869-3.677 0.278-8.749-1.449-12.439-1.277-2.729-1.305-2.639 1.546-5.016 7.05-5.877 17.443-10.781 26.5-12.504 1.76-0.334 3.56-0.689 4-0.787s1.7-0.151 2.8-0.116l2 0.062 2.289 4.6m-53.08 13.948c5.878 2.67 7.569 9.696 3.484 14.469-4.201 4.907-11.135 4.466-14.77-0.94-4.987-7.416 3.183-17.21 11.286-13.529" fill="#9a4dca" fill-rule="evenodd"></path>
</g>
</svg></svg></g></svg>