<?xml version="1.0" standalone="no"?>
<!DOCTYPE svg PUBLIC "-//W3C//DTD SVG 20010904//EN"
 "http://www.w3.org/TR/2001/REC-SVG-20010904/DTD/svg10.dtd">
<svg version="1.0" xmlns="http://www.w3.org/2000/svg"
 width="700.000000pt" height="700.000000pt" viewBox="0 0 700.000000 700.000000"
 preserveAspectRatio="xMidYMid meet">
<metadata>
Created by potrace 1.14, written by Peter Selinger 2001-2017
</metadata>
<g transform="translate(0.000000,700.000000) scale(0.100000,-0.100000)"
fill="#000000" stroke="none">
<path d="M3231 6041 c-6 -4 -54 -106 -106 -226 -52 -119 -96 -219 -99 -222 -2
-2 -69 -28 -149 -58 -378 -138 -649 -330 -902 -636 -11 -13 -52 -71 -91 -129
-129 -193 -235 -442 -285 -671 -13 -57 -29 -111 -37 -121 -7 -9 -29 -19 -48
-23 -53 -9 -195 -86 -243 -130 -235 -218 -218 -637 33 -825 101 -75 197 -107
335 -112 40 -1 79 -7 86 -13 7 -5 35 -54 63 -108 127 -241 293 -435 545 -634
59 -47 107 -87 107 -90 0 -2 -22 -41 -48 -86 -75 -128 -109 -221 -128 -352
-10 -63 -10 -204 -1 -272 21 -154 103 -353 155 -375 60 -25 310 -16 437 16
129 32 249 79 347 136 l71 41 36 -24 c110 -73 239 -71 386 7 28 15 32 14 71
-9 225 -132 416 -183 681 -181 124 1 133 3 157 25 30 29 90 165 117 269 38
146 32 355 -16 512 -18 58 -85 197 -116 242 -32 45 -24 59 82 137 223 167 416
398 560 668 l44 83 50 1 c64 1 108 6 170 20 325 77 504 465 358 780 -34 71
-104 156 -167 198 -40 27 -132 69 -165 76 -78 15 -75 12 -111 170 -110 491
-411 920 -840 1197 -163 105 -274 158 -480 227 -96 33 -136 51 -138 63 -2 9
29 93 67 185 39 93 71 174 71 181 0 18 -130 76 -142 64 -5 -5 -47 -96 -93
-202 -46 -106 -89 -198 -95 -204 -11 -11 -107 -13 -135 -2 -20 7 -16 31 17
105 48 109 79 182 88 212 8 26 4 29 -63 64 l-71 36 -16 -21 c-9 -12 -47 -94
-85 -183 -37 -89 -74 -172 -82 -183 -10 -16 -30 -24 -75 -31 -70 -11 -98 -7
-98 14 0 8 29 84 65 168 36 83 65 157 65 163 0 20 -120 74 -139 63z m441 -589
c8 -8 5 -26 -10 -63 -32 -76 -30 -83 38 -113 89 -40 86 -41 141 77 38 80 44
81 178 41 527 -161 944 -547 1145 -1061 20 -50 50 -146 68 -213 l32 -122 -25
-19 c-23 -17 -140 -53 -329 -100 -152 -38 -149 -39 -174 38 -51 155 -191 288
-368 350 -135 47 -339 38 -465 -22 -17 -8 -34 -15 -37 -15 -28 0 -171 -130
-217 -197 l-30 -43 -139 0 -138 0 -36 50 c-108 150 -271 242 -457 256 -121 10
-272 -24 -351 -78 -14 -10 -31 -18 -37 -18 -6 0 -46 -35 -88 -78 -60 -59 -89
-98 -123 -166 -25 -49 -51 -91 -59 -94 -12 -4 -83 7 -136 22 -5 2 -23 6 -40
11 -82 21 -227 65 -245 75 -23 12 -22 31 11 167 91 374 351 756 674 989 145
105 370 226 435 236 21 2 26 -2 28 -25 3 -22 14 -33 64 -58 33 -17 66 -28 74
-25 8 3 24 27 35 53 41 97 53 115 78 124 36 14 137 23 144 13 3 -5 -6 -35 -19
-68 -13 -32 -21 -63 -18 -67 6 -10 53 -33 112 -55 l34 -12 27 61 c15 34 33 78
41 97 23 61 33 67 106 65 36 -1 70 -7 76 -13z m-772 -1333 c340 -78 453 -526
191 -762 -141 -127 -377 -149 -531 -48 -138 89 -209 221 -208 383 1 46 4 92 8
103 36 95 56 132 110 198 17 21 92 75 130 95 77 40 205 53 300 31z m1375 -2
c95 -25 208 -112 260 -202 62 -104 79 -267 40 -375 -99 -276 -422 -379 -670
-214 -308 204 -223 689 139 789 48 14 183 15 231 2z m-739 -311 c1 0 4 -50 8
-111 8 -137 25 -210 71 -301 63 -129 209 -249 358 -295 214 -66 475 -1 631
158 81 83 148 214 162 316 9 64 15 77 42 90 23 12 341 101 442 123 19 4 64 7
100 6 174 -6 297 -83 361 -226 76 -172 -14 -394 -189 -473 -75 -33 -143 -38
-245 -18 -47 9 -90 14 -95 11 -5 -3 -17 -27 -27 -53 -83 -221 -215 -419 -399
-599 -126 -124 -158 -150 -276 -229 -200 -132 -435 -230 -630 -261 -19 -3 -38
-8 -41 -9 -29 -18 -386 -26 -513 -12 -396 44 -789 238 -1073 528 -154 158
-259 314 -342 509 -29 67 -52 119 -57 128 -1 2 -19 -1 -40 -7 -86 -22 -175
-28 -239 -16 -73 15 -157 75 -225 162 -30 38 -53 122 -54 198 0 70 4 89 31
148 21 44 51 86 88 121 131 127 234 133 595 35 197 -53 195 -52 206 -128 19
-134 76 -251 163 -341 75 -76 143 -120 230 -149 191 -63 398 -38 557 69 180
119 261 269 273 510 6 111 7 114 31 120 20 5 91 2 96 -4z m-828 -1922 c139
-24 353 -119 459 -204 l61 -49 -29 -70 c-31 -74 -40 -139 -29 -203 9 -45 1
-57 -60 -90 -157 -84 -318 -127 -495 -132 -105 -4 -110 0 -140 95 -14 45 -28
98 -32 118 -11 66 -6 205 11 276 21 91 74 220 103 251 23 25 46 27 151 8z
m1738 7 c15 -2 73 -122 101 -211 45 -142 42 -333 -8 -466 -29 -77 -36 -82
-119 -78 -182 7 -335 45 -500 126 -77 38 -91 53 -84 93 7 41 7 109 -1 137 -3
13 -13 46 -22 75 -16 50 -16 53 3 74 35 38 181 129 271 168 48 21 126 47 173
59 113 28 130 30 186 23z m-865 -331 c83 -45 109 -148 56 -228 -64 -97 -205
-97 -266 1 -42 68 -33 144 24 201 52 53 118 62 186 26z"/>
<path d="M4097 2956 c-11 -9 -26 -46 -38 -93 -30 -122 -82 -217 -158 -293
-268 -265 -725 -200 -914 130 -26 46 -42 88 -71 192 -19 65 -35 75 -109 65
-37 -5 -72 -31 -63 -46 2 -3 7 -30 11 -59 30 -236 192 -454 411 -553 149 -68
340 -85 500 -44 222 56 392 192 489 390 61 126 95 266 73 308 -11 21 -104 24
-131 3z"/>
</g>
</svg>
